<svg width="591" height="606" viewBox="0 0 591 606" fill="none" xmlns="http://www.w3.org/2000/svg">
<path d="M376.001 498.732C404.502 498.712 431.831 487.449 451.993 467.414C472.154 447.378 483.502 420.207 483.545 391.861C483.545 390.451 483.545 389.055 483.441 387.645C482.918 374.191 479.829 360.959 474.337 348.652C472.136 343.739 469.562 339 466.636 334.477C457.369 319.978 444.718 307.92 429.758 299.328L420.804 314.735L429.758 299.313C413.421 289.938 394.893 284.998 376.031 284.99L161.57 285.064L161.182 0H125.364L125.737 320.688L376.001 320.613C388.576 320.609 400.931 323.901 411.819 330.158C415.077 332.035 418.181 334.164 421.102 336.525C423.498 338.451 425.762 340.533 427.878 342.759C394.583 374.252 350.402 391.828 304.454 391.861H125.364C101.615 391.861 78.8384 382.478 62.0454 365.776C45.2524 349.074 35.8182 326.421 35.8182 302.801C35.8182 279.181 45.2524 256.529 62.0454 239.827C78.8384 223.125 101.615 213.742 125.364 213.742V178.119C92.1151 178.119 60.2284 191.255 36.7181 214.637C13.2079 238.02 0 269.734 0 302.801C0 335.869 13.2079 367.583 36.7181 390.966C60.2284 414.348 92.1151 427.484 125.364 427.484V605.603H161.182V427.484H232.818V498.732H376.001ZM304.454 427.484C356.354 427.451 406.491 408.757 445.623 374.85C446.782 379.499 447.457 384.254 447.638 389.041L465.547 388.343L447.638 389.055C447.638 389.99 447.712 390.911 447.712 391.861C447.681 410.763 440.111 428.88 426.664 442.237C413.217 455.594 394.991 463.1 375.986 463.108H268.636V427.484H304.454Z" fill="#00FF74"/>
<path d="M528.004 240.685C525.019 237.716 521.84 234.748 518.557 231.883C519.064 225.842 519.363 219.771 519.363 213.745C519.363 95.8896 422.952 0.00244141 304.454 0.00244141H268.636V35.6261H304.454C350.698 35.6796 395.133 53.5031 428.476 85.3732C461.819 117.243 481.49 160.695 483.38 206.65C480.206 204.819 476.993 203.077 473.739 201.425C470.396 199.733 467.053 198.144 463.815 196.69C445.577 188.561 426.28 183.025 406.491 180.244C399.353 158.925 385.664 140.375 367.356 127.21C349.048 114.046 327.045 106.932 304.454 106.874H232.817V284.992H268.636V213.745H376.09C401.294 213.681 426.222 218.953 449.219 229.211C451.905 230.399 454.681 231.735 457.472 233.16L465.635 217.292L457.487 233.16C493.336 251.327 521.99 280.971 538.829 317.314C555.669 353.657 559.713 394.58 550.311 433.488C540.908 472.397 518.606 507.022 487 531.784C455.394 556.546 416.325 570.002 376.09 569.982H268.636V605.605H376.09C494.588 605.605 590.999 509.718 590.999 391.863C591.08 363.772 585.553 335.944 574.739 309.993C563.926 284.042 548.04 260.484 528.004 240.685ZM268.636 178.121V142.497H304.454C317.02 142.53 329.359 145.835 340.241 152.086C351.123 158.336 360.17 167.312 366.479 178.121H268.636Z" fill="#00FF74"/>
</svg>
